<svg width="471" height="219" viewBox="0 0 471 219" fill="none" xmlns="http://www.w3.org/2000/svg">
<ellipse cx="399.106" cy="82.5" rx="15.8943" ry="20.5" fill="#8CAED7"/>
<ellipse cx="254.894" cy="82.5" rx="15.8943" ry="20.5" fill="#8CAED7"/>
<rect x="255.282" y="62" width="144.211" height="41" fill="#8CAED7"/>
<ellipse cx="409.597" cy="155.5" rx="21.4031" ry="20.5" fill="#8CAED7"/>
<ellipse cx="215.403" cy="155.5" rx="21.4031" ry="20.5" fill="#8CAED7"/>
<rect x="215.925" y="135" width="194.194" height="41" fill="#8CAED7"/>
<ellipse cx="270.597" cy="114.5" rx="21.4031" ry="20.5" fill="#8CAED7"/>
<ellipse cx="76.4031" cy="114.5" rx="21.4031" ry="20.5" fill="#8CAED7"/>
<rect x="76.9252" y="94" width="194.194" height="41" fill="#8CAED7"/>
<ellipse cx="215.597" cy="155.5" rx="21.4031" ry="20.5" fill="#8CAED7"/>
<ellipse cx="21.4031" cy="155.5" rx="21.4031" ry="20.5" fill="#8CAED7"/>
<rect x="21.9252" y="135" width="194.194" height="41" fill="#8CAED7"/>
<ellipse cx="348.597" cy="116.5" rx="21.4031" ry="20.5" fill="#8CAED7"/>
<ellipse cx="154.403" cy="116.5" rx="21.4031" ry="20.5" fill="#8CAED7"/>
<rect x="154.925" y="96" width="194.194" height="41" fill="#8CAED7"/>
<circle cx="450.5" cy="82.5" r="20.5" fill="#8CAED7"/>
<circle cx="22.5" cy="114.5" r="20.5" fill="#8CAED7"/>
<rect x="78" y="49.9699" width="184" height="175" rx="19" transform="rotate(-15.758 78 49.9699)" fill="#096BDE"/>
<rect x="181.519" y="10.2563" width="184" height="175" rx="19" transform="rotate(11.625 181.519 10.2563)" fill="white"/>
<path d="M176.756 120.253C207.632 95.5129 218.25 97.8026 225.955 117.281M267.535 119.931C295.298 107.612 306.417 102.678 322.079 148.333M172.666 140.137L175.642 125.671C183.703 119.023 190.353 114.178 195.896 110.911C201.696 107.493 206.014 105.967 209.281 105.72C212.34 105.489 214.601 106.361 216.608 108.255C218.771 110.296 220.753 113.645 222.7 118.568C226.71 128.705 237.68 135.782 248.811 131.571C256.42 128.692 263.193 125.687 269.091 123.071C271.934 121.81 274.573 120.639 277.004 119.616C284.757 116.354 290.316 114.636 294.884 114.998C299.037 115.327 302.931 117.452 307.165 123.666C311.419 129.908 315.735 139.891 320.669 155.188L317.63 169.959C316.127 177.262 308.989 181.965 301.686 180.462L183.168 156.08C175.866 154.578 171.163 147.439 172.666 140.137ZM323.441 141.712C319.913 132.146 316.507 124.943 312.95 119.724C307.916 112.337 302.316 108.565 295.437 108.02C288.973 107.507 281.961 109.936 274.29 113.164C271.637 114.28 268.885 115.502 265.98 116.791C260.183 119.364 253.776 122.208 246.334 125.023C239.679 127.541 232.194 123.539 229.209 115.993C227.131 110.739 224.689 106.257 221.413 103.164C217.98 99.9243 213.785 98.3597 208.753 98.7402C203.929 99.105 198.521 101.239 192.342 104.881C188.047 107.412 183.247 110.752 177.851 114.933L191.809 47.0852C193.311 39.7823 200.449 35.0801 207.752 36.5825L326.27 60.9647C333.573 62.4671 338.275 69.6052 336.773 76.9081L323.441 141.712Z" stroke="#096BDE" stroke-width="7"/>
<circle cx="220.231" cy="67.736" r="14.5" transform="rotate(11.625 220.231 67.736)" fill="#096BDE"/>
<rect x="183.986" y="14.1335" width="177" height="168" rx="15.5" transform="rotate(11.625 183.986 14.1335)" stroke="#096BDE" stroke-width="7"/>
</svg>
